<svg xmlns="http://www.w3.org/2000/svg" xmlns:bx="https://boxy-svg.com" xmlns:xlink="http://www.w3.org/1999/xlink" fill="none" viewBox="0 0 42 42">
  <defs>
    <path id="b" fill="#0ae8f0" d="M70.192 44.468c-.653.108-1.311.164-1.972.166-4.33 0-5.954-1.443-7.834-3.112-1.814-1.61-4.073-3.614-8.181-3.614H49.75c-2.971 0-5.671 1.082-7.605 3.041-1.888 1.914-2.928 4.533-2.928 7.377v3.362c0 2.844 1.04 5.464 2.928 7.378 1.934 1.958 4.634 3.038 7.605 3.038h2.455c4.108 0 6.367-2.002 8.181-3.613 1.88-1.66 3.504-3.111 7.834-3.111.66 0 1.319.053 1.972.158.373-.935.651-1.906.828-2.897a.4.4 0 0 0 0-.049 15.292 15.292 0 0 0-2.809-.259c-9.949 0-9.428 6.726-16.015 6.726h-2.455c-4.52 0-7.489-3.234-7.489-7.371v-3.369c0-4.137 2.969-7.369 7.489-7.369h2.455c6.587 0 6.069 6.722 16.015 6.722.943.002 1.883-.084 2.809-.257v-.046a15.042 15.042 0 0 0-.828-2.901Z"/>
  </defs>
  <defs>
    <pattern xlink:href="#a" id="c" patternTransform="translate(2.821 2.821) scale(.36358)"/>
    <pattern bx:pinned="true" id="a" width="100" height="100" patternUnits="userSpaceOnUse" preserveAspectRatio="none">
      <path fill="#006bff" d="M60.384 58.485c-1.813 1.611-4.076 3.614-8.179 3.614H49.75c-2.97 0-5.671-1.081-7.605-3.04-1.888-1.914-2.928-4.534-2.928-7.378v-3.362c0-2.843 1.04-5.464 2.928-7.378 1.934-1.958 4.635-3.038 7.605-3.038h2.455c4.108 0 6.366 2.003 8.179 3.613 1.882 1.66 3.506 3.112 7.836 3.112.66 0 1.319-.053 1.971-.158l-.015-.038a14.789 14.789 0 0 0-.91-1.874l-2.894-5.018a14.885 14.885 0 0 0-5.441-5.448 14.867 14.867 0 0 0-7.434-1.993h-5.788a14.864 14.864 0 0 0-12.875 7.441l-2.893 5.018a14.898 14.898 0 0 0 0 14.884l2.893 5.019a14.878 14.878 0 0 0 5.442 5.447 14.855 14.855 0 0 0 7.433 1.994h5.788a14.858 14.858 0 0 0 12.875-7.441l2.894-5.011c.347-.601.651-1.227.91-1.873l.015-.036a12.289 12.289 0 0 0-1.971-.166c-4.33 0-5.954 1.443-7.836 3.112"/>
      <path fill="#006bff" d="M52.205 40.95H49.75c-4.52 0-7.49 3.232-7.49 7.369v3.362c0 4.138 2.97 7.37 7.49 7.37h2.455c6.585 0 6.069-6.724 16.015-6.724.942-.001 1.882.086 2.809.259a14.87 14.87 0 0 0 0-5.171c-.927.172-1.868.259-2.809.259-9.95 0-9.43-6.724-16.015-6.724Z"/>
      <path fill="#006bff" d="M76.743 55.043a13.867 13.867 0 0 0-5.712-2.459v.05a14.939 14.939 0 0 1-.83 2.897c1.706.265 3.325.933 4.723 1.948 0 .012-.008.029-.013.044a25.489 25.489 0 0 1-10.789 14.068 25.436 25.436 0 0 1-17.343 3.619 25.451 25.451 0 0 1-15.503-8.581 25.516 25.516 0 0 1 0-33.257 25.451 25.451 0 0 1 15.503-8.581 25.436 25.436 0 0 1 17.343 3.619 25.489 25.489 0 0 1 10.789 14.068c0 .015.008.031.013.044a10.846 10.846 0 0 1-4.723 1.946c.373.936.651 1.908.83 2.901a.353.353 0 0 0 0 .046 13.864 13.864 0 0 0 5.712-2.457c1.629-1.207 1.313-2.57 1.067-3.377a28.575 28.575 0 0 0-12.089-15.775 28.511 28.511 0 0 0-19.44-4.063 28.53 28.53 0 0 0-17.382 9.617 28.596 28.596 0 0 0 0 37.281 28.517 28.517 0 0 0 36.822 5.554A28.575 28.575 0 0 0 77.81 58.42c.246-.807.562-2.17-1.067-3.377Z"/>
      <use xlink:href="#b"/>
      <use xlink:href="#b"/>
    </pattern>
  </defs>
  <rect width="42" height="42" fill="#fff" rx="10"/>
  <path fill="url(#c)" d="M0 9.184h42v23.632H0z"/>
</svg>